<?xml version="1.0" encoding="iso-8859-1"?>
<!-- Generator: Adobe Illustrator 19.0.0, SVG Export Plug-In . SVG Version: 6.00 Build 0)  -->
<svg xmlns="http://www.w3.org/2000/svg" xmlns:xlink="http://www.w3.org/1999/xlink" version="1.1" id="Capa_1" x="0px" y="0px" viewBox="0 0 413.728 413.728" style="enable-background:new 0 0 413.728 413.728;" xml:space="preserve" width="512" height="512">
<g>
	<path style="fill:#A0758E;" d="M124.089,252.888H12.296c-6.6,0-12-5.4-12-12V12.759c0-6.6,5.4-12,12-12h333.751c6.6,0,12,5.4,12,12   v8.442v230.561L124.089,252.888z"/>
	<path style="fill:#FFEFCA;" d="M0,151.701L153.103,0.36c0,0-77.587,0-79.253,0L0,74.209C0,74.209,0,152.29,0,151.701z"/>
	<path style="fill:#826075;" d="M147.822,252.746V53.868c0-6.616,5.363-11.98,11.98-11.98h198.355v211.292L147.822,252.746z"/>
	<path style="fill:#FFEFCA;" d="M413.728,67.841v333.751c0,6.6-5.4,12-12,12H173.598c-6.6,0-12-5.4-12-12V67.841c0-6.6,5.4-12,12-12   h228.129C408.328,55.841,413.728,61.241,413.728,67.841z"/>
	<path style="fill:#FFF7E6;" d="M161.598,173.429V67.841c0-6.6,5.4-12,12-12h228.129c6.6,0,12,5.4,12,12v105.588H161.598z"/>
	<g>
		<path style="fill:#6BE8C7;" d="M123.039,312.632H25.367c-4.142,0-7.5-3.358-7.5-7.5s3.358-7.5,7.5-7.5h97.672    c4.142,0,7.5,3.358,7.5,7.5S127.181,312.632,123.039,312.632z"/>
	</g>
	<g>
		<path style="fill:#3CD3A8;" d="M123.039,344.431H25.367c-4.142,0-7.5-3.358-7.5-7.5s3.358-7.5,7.5-7.5h97.672    c4.142,0,7.5,3.358,7.5,7.5S127.181,344.431,123.039,344.431z"/>
	</g>
	<g>
		<path style="fill:#6BE8C7;" d="M123.039,376.232H25.367c-4.142,0-7.5-3.358-7.5-7.5s3.358-7.5,7.5-7.5h97.672    c4.142,0,7.5,3.358,7.5,7.5S127.181,376.232,123.039,376.232z"/>
	</g>
	<g>
		<path style="fill:#FCC973;" d="M358.645,253.489H216.681c-4.142,0-7.5-3.358-7.5-7.5s3.358-7.5,7.5-7.5h141.965    c4.142,0,7.5,3.358,7.5,7.5S362.787,253.489,358.645,253.489z"/>
	</g>
	<g>
		<path style="fill:#FCC973;" d="M358.645,300.053H216.681c-4.142,0-7.5-3.358-7.5-7.5s3.358-7.5,7.5-7.5h141.965    c4.142,0,7.5,3.358,7.5,7.5S362.787,300.053,358.645,300.053z"/>
	</g>
	<g>
		<path style="fill:#FCC973;" d="M358.645,346.618H216.681c-4.142,0-7.5-3.358-7.5-7.5s3.358-7.5,7.5-7.5h141.965    c4.142,0,7.5,3.358,7.5,7.5S362.787,346.618,358.645,346.618z"/>
	</g>
	<circle style="fill:#3CD3A8;" cx="287.663" cy="114.301" r="29.353"/>
	<polygon style="fill:#FFDFA1;" points="0,151.701 0,126.85 128.715,0.135 153.103,0.135  "/>
	<path style="fill:#FFDFA1;" d="M413.728,173.219v228.373c0,6.6-5.4,12-12,12h-17.487V173.219"/>
	<path style="fill:#FFEFCA;" d="M384.241,173.219V55.841h17.487c6.6,0,12,5.4,12,12v105.378"/>
</g>















</svg>
